<?xml version="1.0" encoding="utf-8"?>
<svg version="1.1" id="Layer_1" xmlns="http://www.w3.org/2000/svg" xmlns:xlink="http://www.w3.org/1999/xlink" x="0px" y="0px"
	 viewBox="0 0 500 500" style="enable-background:new 0 0 500 500;" xml:space="preserve">
<style type="text/css">
	.st0{fill:#FFFFFF;}
	.st1{fill:#3952A3;stroke:#FFFFFF;stroke-width:2;stroke-miterlimit:10;}
</style>
<g>
	<path class="st0" d="M86.2,235h8.8c1.3,0,2.4-0.5,3.2-1.5c0.9-1,1.6-1.7,2-2.3c0.2-0.3,0.4-0.5,0.6-0.5c0.3,0,0.4,0.1,0.4,0.4
		c0,0.2,0,0.3,0,0.4l-1.5,5.3H80.8c-0.3,0-0.4-0.1-0.4-0.4c0-0.3,0.3-0.6,1-0.9c0.7-0.2,1-0.8,1-1.7v-22.9c0-0.9-0.3-1.4-1-1.7
		s-1-0.5-1-0.9c0-0.3,0.1-0.4,0.4-0.4h7c0.3,0,0.4,0.1,0.4,0.4c0,0.4-0.3,0.7-1,0.9s-1,0.8-1,1.7L86.2,235z"/>
	<path class="st0" d="M125.5,224.9v-13.8c0-0.9-0.3-1.4-1-1.7s-1-0.5-1-0.9c0-0.3,0.1-0.4,0.4-0.4h7c0.3,0,0.4,0.1,0.4,0.4
		c0,0.4-0.3,0.6-1,0.9c-0.7,0.2-1,0.8-1,1.7v11.1c0,2.1,0.1,4,0.2,5.6c0.1,1.6,0.5,3,1.1,4.1c0.6,1.1,1.4,2,2.6,2.5s2.8,0.9,4.8,0.9
		c3.6,0,6.1-1.4,7.4-4.3c0.9-2,1.4-4.9,1.4-8.8v-11c0-0.9-0.3-1.4-1-1.7c-0.7-0.2-1-0.5-1-0.9c0-0.3,0.1-0.4,0.4-0.4h5.3
		c0.3,0,0.4,0.1,0.4,0.4c0,0.4-0.3,0.7-1,0.9c-0.7,0.2-1,0.8-1,1.7v13.8c0,2-0.2,3.9-0.6,5.6c-0.4,1.7-1,3.1-2,4.3
		c-1.7,2-4.5,3-8.2,3c-2.3,0-4.3-0.2-6-0.7c-1.6-0.4-3-1.2-4-2.4C126.3,232.8,125.5,229.5,125.5,224.9z"/>
	<path class="st0" d="M198.5,232.8v-21.7c0-0.9-0.3-1.4-1-1.7s-1-0.5-1-0.9c0-0.3,0.1-0.4,0.4-0.4h5.3c0.3,0,0.4,0.1,0.4,0.4
		c0,0.4-0.3,0.7-1,0.9s-1,0.8-1,1.7l0,26.8l-3.6-0.9l-19.7-24.5V234c0,0.9,0.3,1.5,1,1.7c0.7,0.2,1,0.5,1,0.9c0,0.3-0.1,0.4-0.4,0.4
		h-5.2c-0.3,0-0.4-0.1-0.4-0.4c0-0.3,0.3-0.6,1-0.9c0.7-0.2,1-0.8,1-1.7v-22.9c0-0.9-0.3-1.4-1-1.7s-1-0.5-1-0.9
		c0-0.3,0.1-0.4,0.4-0.4h5.3L198.5,232.8z"/>
	<path class="st0" d="M252.8,220.7c0,0.5,0,0.9,0,1.3c0,2.3-0.4,4.3-1.3,6.1c-1,2.2-2.4,4-4.2,5.4c-3.1,2.4-6.8,3.6-11.2,3.6h-1.6
		c-0.8,0-1.5,0-2.2,0h-2.4c-1.1,0-2,0-2.6-0.1h-0.5c-0.5,0-1.3,0-2.1,0.1c-0.3,0-0.4-0.2-0.4-0.5c0-0.3,0.3-0.6,1-0.9s1-0.8,1-1.7
		V211c0-0.9-0.3-1.4-1-1.7s-1-0.5-1-0.9c0-0.3,0.1-0.4,0.4-0.4c0.6,0,1.2,0,1.8,0c0.6,0,1.2,0,1.8,0c1.2,0,2.3-0.1,3.5-0.1h1.2
		c2.1,0,4.2,0.1,6.3,0.2c2.5,0.2,4.8,0.7,6.8,1.5c1.9,0.8,3.5,2.1,4.7,3.9C251.9,215.2,252.6,217.6,252.8,220.7z M230.1,209.9v25
		c1.7,0.3,3.3,0.5,4.9,0.5c0.6,0,1.2,0,1.8-0.1c2.1-0.2,4-0.7,5.6-1.5c1.9-1,3.5-2.6,4.6-4.7c1-1.9,1.5-4.4,1.5-7.3v-0.7
		c-0.1-2.2-0.4-4.1-1.2-5.6c-0.7-1.5-1.7-2.7-2.9-3.6c-1.8-1.3-3.9-2.1-6.4-2.3c-0.9-0.1-1.7-0.1-2.6-0.1
		C233.6,209.5,231.9,209.6,230.1,209.9z"/>
	<path class="st0" d="M286.8,208.1c1.3,0,2.7,0.2,4.2,0.7s2.6,1.4,3.4,2.8c0.6,1.1,0.9,2.4,0.9,4c0,1.5-0.5,2.8-1.3,4
		c-0.6,0.9-1.5,1.6-2.7,2.1c1.9,0.6,3.4,1.7,4.3,3.3c0.7,1.2,1,2.7,1,4.4c0,1.6-0.5,3.1-1.4,4.4c-0.8,1.1-1.9,1.9-3.3,2.5
		c-1.4,0.5-2.7,0.8-3.9,0.8H275c-0.3,0-0.4-0.1-0.4-0.4c0-0.3,0.3-0.6,1-0.9s1-0.8,1-1.7v-22.9c0-0.9-0.3-1.4-1-1.7s-1-0.5-1-0.9
		c0-0.3,0.1-0.4,0.4-0.4H286.8z M280.4,221h5.7c1.6-0.2,2.9-0.7,3.9-1.7c1-1,1.5-2.3,1.5-4c0-1.6-0.5-3-1.6-4
		c-1.2-1.1-2.7-1.7-4.7-1.7h-4.9V221z M280.4,222.8v12.6h4.7c1,0,2-0.1,3-0.4c1-0.3,1.9-0.8,2.6-1.5c1.1-1.1,1.7-2.6,1.7-4.4
		c0-1.8-0.6-3.2-1.8-4.4c-1.3-1.2-3-1.9-5.2-1.9H280.4z"/>
	<path class="st0" d="M324.5,235h8.8c1.3,0,2.4-0.5,3.2-1.5s1.6-1.7,2-2.3c0.2-0.3,0.4-0.5,0.6-0.5c0.3,0,0.4,0.1,0.4,0.4
		c0,0.2,0,0.3,0,0.4L338,237h-18.9c-0.2,0-0.4-0.1-0.4-0.4c0-0.3,0.3-0.6,1-0.9c0.7-0.2,1-0.8,1-1.7v-22.9c0-0.9-0.3-1.5-1-1.7
		c-0.7-0.2-1-0.5-1-0.9c0-0.3,0.1-0.4,0.4-0.4h19.1v5.3c0,0.3-0.1,0.4-0.4,0.4c-0.1,0-0.4-0.3-0.8-0.8c-0.7-0.9-1.3-1.7-1.8-2.2
		c-0.5-0.5-1.2-0.8-2-0.8h-8.8v11.2h4.7c0.9,0,1.5-0.4,1.7-1.1s0.6-1.1,0.9-1.1c0.3,0,0.4,0.1,0.4,0.4v5.2c0,0.3-0.1,0.4-0.4,0.4
		c-0.4,0-0.7-0.4-1-1.1c-0.3-0.7-0.9-1.1-1.8-1.1h-4.6V235z"/>
	<path class="st0" d="M385,235.5c0.4,0.3,0.9,0.5,1.5,0.6c0.4,0,0.6,0.2,0.6,0.4v0.1c0,0.3-0.2,0.4-0.4,0.4h-5.5
		c-0.1,0-0.6-0.5-1.4-1.6c-0.8-1.1-1.8-2.3-2.8-3.8c-1.1-1.5-2.2-3-3.3-4.6c-1.1-1.6-2.1-2.8-2.8-3.7h-3.3V234c0,0.9,0.3,1.5,1,1.7
		c0.7,0.2,1,0.5,1,0.9c0,0.3-0.1,0.4-0.4,0.4h-7c-0.3,0-0.4-0.1-0.4-0.4c0-0.3,0.3-0.6,1-0.9c0.7-0.2,1-0.8,1-1.7v-22.9
		c0-0.9-0.3-1.4-1-1.7c-0.7-0.2-1-0.5-1-0.9c0-0.3,0.1-0.4,0.4-0.4h12.1c1.4,0,2.9,0.3,4.4,0.8c1.5,0.5,2.7,1.5,3.6,2.9
		c0.7,1.2,1,2.6,1,4.2c0,1.6-0.5,2.9-1.3,4.2c-0.7,1-1.6,1.7-2.9,2.2c-1.2,0.5-2.4,0.8-3.5,0.9L385,235.5z M367.5,209.8v12h4.8
		c0.9,0,1.9-0.1,2.9-0.4c1-0.3,1.8-0.8,2.5-1.5c1.1-1.1,1.6-2.5,1.6-4.2c0-1.7-0.6-3.1-1.7-4.2c-1.2-1.2-2.9-1.8-4.9-1.8H367.5z"/>
	<path class="st0" d="M422.3,237.7c-4.2,0-7.9-1.3-11.2-4s-4.9-6.4-4.9-11.2c0-4.6,1.6-8.3,4.7-11.1c3.2-2.8,6.9-4.2,11.3-4.2
		c1.6,0,3.3,0.2,5,0.5c1.8,0.4,3.5,1,5.1,2.1l-0.5,4.3c-0.1,0.2-0.2,0.4-0.4,0.4h-0.1c-0.2,0-0.3-0.2-0.5-0.6
		c-0.9-1.9-2-3.2-3.3-3.8c-1.3-0.6-3.1-0.9-5.3-0.9c-3.1,0-5.8,1.1-8.2,3.2c-2.4,2.1-3.6,5.5-3.6,10.2c0,3,1.1,5.9,3.3,8.7
		c2.2,2.8,5,4.3,8.4,4.4c0.3,0,0.6,0,0.9,0c1.6,0,2.9-0.2,4-0.6c1.3-0.5,2.3-1.5,3.2-3v-3.9c0-0.4-0.2-0.8-0.7-1
		c-0.4-0.2-0.9-0.4-1.6-0.7c-0.7-0.3-1.1-0.6-1.1-0.9c0-0.3,0.1-0.4,0.4-0.4h8.3c0.3,0,0.4,0.1,0.4,0.4c0,0.4-0.3,0.7-1,0.9
		s-1,0.8-1,1.7v8c-2.1,0.1-4.2,0.4-6.1,0.9c-1,0.3-2,0.4-2.9,0.5C424.2,237.7,423.2,237.7,422.3,237.7z"/>
</g>
<g>
	<path class="st0" d="M119,118.4c0,0.8-0.4,1.1-1.1,1.1c-0.3,0-1-0.7-2.1-2.2c-1.9-2.5-3.5-4.5-4.8-5.8c-1.3-1.4-3.1-2.1-5.3-2.1H92
		v63.6c0,2.4,0.9,3.9,2.7,4.5c1.8,0.7,2.7,1.4,2.7,2.3c0,0.7-0.4,1.1-1.1,1.1H77.9c-0.8,0-1.1-0.4-1.1-1.1c0-0.9,0.9-1.7,2.7-2.3
		c1.8-0.7,2.7-2.2,2.7-4.5v-63.6H68.3c-2.2,0-4,0.7-5.3,2.1c-1.4,1.4-3,3.3-4.8,5.8c-1,1.5-1.7,2.2-2,2.2c-0.8,0-1.1-0.4-1.1-1.1
		v-10.1c0-2,0.3-3.2,1-3.6c0.7-0.4,2.4-0.6,5.2-0.6h51.6c3,0,4.8,0.2,5.4,0.5c0.6,0.4,0.8,1.6,0.8,3.7V118.4z"/>
	<path class="st0" d="M164.2,103.2c1.8,4.3,4.1,9.6,6.7,15.8c2.7,6.2,5.4,12.6,8.3,19.2c2.9,6.6,5.6,13,8.3,19.2
		c2.7,6.2,4.9,11.5,6.8,15.7c0.5,1.3,1.6,2.6,3.2,3.7c0.8,0.5,1.7,1,2.5,1.4c0.8,0.4,1.5,0.7,2,1c0.4,0.3,0.6,0.5,0.7,0.8
		c0.1,0.1,0.1,0.3,0.1,0.4c0,0.1,0,0.2-0.1,0.4c-0.1,0.2-0.3,0.3-0.7,0.3h-18.5c-0.3,0-0.7-0.1-1-0.3c-0.4-0.3-0.6-0.5-0.7-0.8
		c-0.1-0.1-0.1-0.2-0.1-0.3c0-0.3,0.2-0.7,0.7-1c0.3-0.3,0.7-0.7,1.2-1c0.5-0.4,0.8-0.9,1-1.5c0.1-0.3,0.2-0.6,0.2-1
		c0-0.6-0.1-1.3-0.4-2l-8.1-18.7h-31.8c-1.3,3.1-2.6,6.3-3.9,9.4c-1.3,3.1-2.6,6.2-3.9,9.3c-0.3,0.7-0.5,1.4-0.5,2
		c0,0.3-0.1,0.5-0.1,0.8c0,0.4,0.1,0.7,0.2,1c0.1,0.5,0.3,0.9,0.5,1.2c0.3,0.3,0.4,0.6,0.5,1c0,0.3,0.1,0.5,0.1,0.6
		c0,0.1,0,0.2-0.1,0.4c-0.3,0.8-0.7,1.1-1.2,1.1h-14.1c-0.4,0-0.6-0.1-0.8-0.3c0,0,0-0.1-0.1-0.3c0-0.1,0-0.3,0.1-0.5
		c0.2-0.5,0.8-0.9,1.9-1.4c0.5-0.3,1.1-0.5,1.8-0.8c0.6-0.3,1.3-0.7,1.9-1.1c1.3-0.9,2.3-2.1,2.9-3.4l31-70H164.2z M174.6,150
		l-14.3-33.3c-2.3,5.6-4.7,11.1-7,16.7c-2.3,5.5-4.6,11.1-6.9,16.6H174.6z"/>
	<path class="st0" d="M284.7,170v-57.6c0-2.3-0.9-3.8-2.7-4.5c-1.8-0.7-2.7-1.5-2.7-2.4c0-0.8,0.4-1.1,1.1-1.1h13.9
		c0.8,0,1.1,0.4,1.1,1.1c0,0.9-0.9,1.7-2.7,2.4c-1.8,0.7-2.7,2.1-2.7,4.5l-0.1,71l-9.7-2.3l-52.3-65v57c0,2.4,0.9,3.9,2.7,4.5
		c1.8,0.6,2.7,1.4,2.7,2.3c0,0.8-0.4,1.1-1.1,1.1h-13.9c-0.8,0-1.1-0.4-1.1-1.1c0-0.9,0.9-1.7,2.7-2.3c1.8-0.6,2.7-2.1,2.7-4.5
		v-60.7c0-2.3-0.9-3.8-2.7-4.5c-1.8-0.7-2.7-1.5-2.7-2.4c0-0.8,0.4-1.1,1.1-1.1h14L284.7,170z"/>
	<path class="st0" d="M336.4,144.1l-19.1-31.7c-0.8-1.2-2.2-2.5-4.2-3.7c-1-0.5-2-1-2.9-1.3c-0.9-0.3-1.7-0.7-2.3-1.1
		c-0.4-0.2-0.7-0.5-0.9-0.8c-0.1-0.2-0.2-0.4-0.2-0.6v-0.2c0-0.2,0.2-0.3,0.5-0.3h18.5c0.4,0,0.7,0.1,1,0.3c0.4,0.3,0.7,0.5,0.9,0.8
		c0.1,0.2,0.2,0.4,0.2,0.5c0,0.3-0.1,0.5-0.4,0.8c-0.3,0.3-0.6,0.7-0.9,1.1s-0.6,0.8-0.6,1.4v0.3c0,0.8,0.3,1.6,0.9,2.5l18.4,29.2
		l14.1-21.6c1.1-1.6,1.7-3,1.9-4.2c0-0.2,0.1-0.4,0.1-0.5c0-1.1-0.4-2.5-1.3-4.3l-1.9-3.7l7.8-3.4c0.3-0.1,0.5-0.2,0.7-0.2
		c0.5,0,0.9,0.3,1.3,0.9l3.3,5.5c0.4,0.7,0.6,1.4,0.6,2.1c0,1.2-0.6,2.5-1.9,3.8c-1.9,2-4,4.6-6.2,7.8l-14.5,21.2
		c-0.7,1-1.1,2.4-1.3,4.2c-0.2,1.8-0.3,3.5-0.3,5.1v19.2c0,2.4,0.9,3.9,2.7,4.5c1.8,0.6,2.7,1.4,2.7,2.3c0,0.8-0.4,1.1-1.1,1.1
		h-18.5c-0.8,0-1.1-0.4-1.1-1.1c0-0.9,0.9-1.7,2.7-2.3c1.8-0.6,2.7-2.1,2.7-4.5v-23.3C337.9,147.7,337.4,145.8,336.4,144.1z"/>
	<path class="st0" d="M418.9,103.2c1.8,4.3,4.1,9.6,6.7,15.8c2.7,6.2,5.4,12.6,8.3,19.2c2.9,6.6,5.6,13,8.3,19.2
		c2.7,6.2,4.9,11.5,6.8,15.7c0.5,1.3,1.6,2.6,3.2,3.7c0.8,0.5,1.7,1,2.5,1.4c0.8,0.4,1.5,0.7,2,1c0.4,0.3,0.6,0.5,0.7,0.8
		c0.1,0.1,0.1,0.3,0.1,0.4c0,0.1,0,0.2-0.1,0.4c-0.1,0.2-0.3,0.3-0.7,0.3h-18.5c-0.3,0-0.7-0.1-1-0.3c-0.4-0.3-0.6-0.5-0.7-0.8
		c-0.1-0.1-0.1-0.2-0.1-0.3c0-0.3,0.2-0.7,0.7-1c0.3-0.3,0.7-0.7,1.2-1c0.5-0.4,0.8-0.9,1-1.5c0.1-0.3,0.2-0.6,0.2-1
		c0-0.6-0.1-1.3-0.4-2l-8.1-18.7h-31.8c-1.3,3.1-2.6,6.3-3.9,9.4s-2.6,6.2-3.9,9.3c-0.3,0.7-0.5,1.4-0.5,2c0,0.3-0.1,0.5-0.1,0.8
		c0,0.4,0.1,0.7,0.2,1c0.1,0.5,0.3,0.9,0.5,1.2c0.3,0.3,0.4,0.6,0.5,1c0,0.3,0.1,0.5,0.1,0.6c0,0.1,0,0.2-0.1,0.4
		c-0.3,0.8-0.7,1.1-1.2,1.1h-14.1c-0.4,0-0.6-0.1-0.8-0.3c0,0,0-0.1-0.1-0.3c0-0.1,0-0.3,0.1-0.5c0.2-0.5,0.8-0.9,1.9-1.4
		c0.5-0.3,1.1-0.5,1.8-0.8c0.6-0.3,1.3-0.7,1.9-1.1c1.3-0.9,2.3-2.1,3-3.4l31-70H418.9z M429.3,150L415,116.7
		c-2.3,5.6-4.7,11.1-7,16.7c-2.3,5.5-4.6,11.1-6.9,16.6H429.3z"/>
</g>
<g>
	<path class="st0" d="M123.9,369.1c0,0.5-0.3,0.8-0.8,0.8c-0.2,0-0.7-0.5-1.5-1.5c-1.3-1.8-2.4-3.1-3.3-4.1s-2.2-1.5-3.7-1.5H105
		v44.5c0,1.7,0.6,2.7,1.9,3.2c1.3,0.5,1.9,1,1.9,1.6c0,0.5-0.3,0.8-0.8,0.8h-13c-0.5,0-0.8-0.3-0.8-0.8c0-0.6,0.6-1.2,1.9-1.6
		c1.3-0.5,1.9-1.5,1.9-3.2v-44.5h-9.7c-1.5,0-2.8,0.5-3.7,1.5c-1,1-2.1,2.3-3.3,4.1c-0.7,1-1.2,1.5-1.4,1.5c-0.5,0-0.8-0.3-0.8-0.8
		V362c0-1.4,0.2-2.2,0.7-2.5c0.5-0.3,1.7-0.4,3.6-0.4h36.1c2.1,0,3.4,0.1,3.8,0.4c0.4,0.3,0.6,1.1,0.6,2.6V369.1z"/>
	<path class="st0" d="M176.1,410.2c0.7,0.6,1.6,0.9,2.8,1c0.7,0.1,1.1,0.3,1.1,0.8v0.1c-0.1,0.5-0.3,0.8-0.8,0.8H169
		c-0.2,0-1.1-1-2.6-3c-1.5-2-3.2-4.4-5.2-7.1c-2-2.8-4-5.6-6.1-8.4c-2.1-2.9-3.8-5.2-5.2-7h-6.1v19.9c0,1.7,0.6,2.7,1.9,3.2
		c1.3,0.4,1.9,1,1.9,1.6c0,0.5-0.3,0.8-0.8,0.8h-13c-0.5,0-0.8-0.3-0.8-0.8c0-0.6,0.6-1.2,1.9-1.6c1.3-0.4,1.9-1.5,1.9-3.2v-42.4
		c0-1.6-0.6-2.7-1.9-3.1c-1.3-0.5-1.9-1-1.9-1.7c0-0.5,0.3-0.8,0.8-0.8h22.5c2.6,0,5.4,0.5,8.2,1.4c2.9,0.9,5.1,2.7,6.6,5.4
		c1.2,2.2,1.8,4.8,1.8,7.8c-0.1,2.9-0.9,5.5-2.5,7.8c-1.3,1.8-3,3.2-5.3,4.1c-2.3,1-4.4,1.5-6.5,1.6L176.1,410.2z M143.7,362.5v22.3
		h8.9c1.8,0,3.5-0.3,5.3-0.8c1.8-0.5,3.4-1.4,4.7-2.7c2-2,3.1-4.6,3.1-7.8c0-3.1-1.1-5.7-3.2-7.8c-2.3-2.2-5.3-3.2-9.1-3.2H143.7z"
		/>
	<path class="st0" d="M191.6,390.5v-25.6c0-1.6-0.6-2.7-1.9-3.1c-1.3-0.4-1.9-1-1.9-1.7c0-0.5,0.3-0.8,0.8-0.8h13
		c0.5,0,0.8,0.3,0.8,0.8c0,0.7-0.6,1.2-1.9,1.6c-1.2,0.4-1.9,1.4-1.9,3.1v20.6c0,3.9,0.1,7.3,0.4,10.4c0.3,3,0.9,5.5,2,7.6
		c1,2.1,2.6,3.6,4.8,4.7c2.2,1.1,5.2,1.6,9,1.6c6.7,0,11.3-2.6,13.7-7.9c1.7-3.7,2.6-9.2,2.6-16.3v-20.5c0-1.6-0.6-2.7-1.9-3.1
		c-1.3-0.5-1.9-1-1.9-1.7c0-0.5,0.3-0.8,0.8-0.8h9.7c0.5,0,0.8,0.3,0.8,0.8c0,0.7-0.6,1.2-1.9,1.7c-1.3,0.5-1.9,1.5-1.9,3.1v25.6
		c0,3.8-0.4,7.3-1.1,10.4c-0.7,3.1-1.9,5.8-3.7,7.9c-3.2,3.7-8.3,5.6-15.2,5.6c-4.4,0-8.1-0.4-11.1-1.2c-3.1-0.8-5.5-2.3-7.3-4.4
		C193.2,405.2,191.6,399.1,191.6,390.5z"/>
	<path class="st0" d="M265,410.8c2.1-0.1,4-0.7,5.9-1.6s3.4-2.3,4.6-4.2c1.2-1.9,1.8-4.2,1.8-6.9v-0.4c-0.1-2.9-1.2-5.1-3.3-6.6
		c-1-0.7-2.1-1.3-3.5-1.7c-2.7-0.7-5.5-1.3-8.3-1.6c-2.8-0.3-5.5-1.1-8-2.3c-2.3-1.1-4-2.6-5.1-4.7c-1.1-2.1-1.7-4.3-1.7-6.8
		c0-4.8,1.7-8.7,5-11.7c3.4-3.2,7.7-4.7,12.9-4.7h1.1c5.7,0.3,10.5,1.7,14.5,4.2l-0.9,8c-0.1,0.5-0.3,0.7-0.7,0.7h-0.2
		c-0.3,0-0.6-0.4-1-1.1c-1.1-2.3-2.7-4.2-4.8-5.9s-4.3-2.5-6.8-2.6h-0.6c-2.3,0-4.4,0.4-6.3,1.3c-1.2,0.6-2.2,1.3-2.9,2
		c-0.7,0.7-1.2,1.6-1.8,2.6c-0.4,0.8-0.7,1.8-1,2.9c-0.2,0.8-0.3,1.6-0.3,2.3c0,1,0.2,1.9,0.5,2.8c0.5,1.7,1.5,3,2.8,3.9
		c1,0.7,2.1,1.2,3.2,1.5c0.6,0.2,1.4,0.4,2.3,0.5c0.9,0.2,1.9,0.3,2.9,0.5c1.5,0.2,3,0.5,4.6,0.7c1.6,0.2,3.2,0.6,4.7,1.1
		c2.5,0.8,4.4,1.9,5.7,3.2c0.9,1,1.7,2.2,2.3,3.4c0.7,1.7,1,3.5,1,5.5c0,5.5-2.2,10-6.6,13.6c-2.3,1.9-4.8,3.3-7.6,4.2
		c-2.2,0.7-4.6,1.1-7.2,1.2c-0.6,0-1.1,0-1.6,0c-3.5,0-6.9-0.5-10.2-1.5l-3.6-10.1c-0.1-0.1-0.1-0.3-0.1-0.4c0-0.3,0.1-0.5,0.3-0.8
		c0.2-0.3,0.5-0.5,0.8-0.5c0.3,0.1,0.6,0.4,1,1.1c1.6,3.5,3.7,5.9,6.2,7.1c2,1,4.6,1.5,7.8,1.5C263.6,410.9,264.3,410.9,265,410.8z"
		/>
	<path class="st0" d="M334.5,369.1c0,0.5-0.3,0.8-0.8,0.8c-0.2,0-0.7-0.5-1.5-1.5c-1.3-1.8-2.4-3.1-3.3-4.1c-0.9-1-2.2-1.5-3.7-1.5
		h-9.6v44.5c0,1.7,0.6,2.7,1.9,3.2c1.3,0.5,1.9,1,1.9,1.6c0,0.5-0.3,0.8-0.8,0.8h-13c-0.5,0-0.8-0.3-0.8-0.8c0-0.6,0.6-1.2,1.9-1.6
		c1.3-0.5,1.9-1.5,1.9-3.2v-44.5H299c-1.5,0-2.8,0.5-3.7,1.5s-2.1,2.3-3.3,4.1c-0.7,1-1.2,1.5-1.4,1.5c-0.5,0-0.8-0.3-0.8-0.8V362
		c0-1.4,0.2-2.2,0.7-2.5c0.5-0.3,1.7-0.4,3.6-0.4h36.1c2.1,0,3.4,0.1,3.8,0.4s0.6,1.1,0.6,2.6V369.1z"/>
	<path class="st0" d="M355.2,409.3h16.3c2.4,0,4.4-0.9,6-2.7c1.6-1.8,2.9-3.2,3.7-4.3c0.5-0.6,0.8-0.8,1.1-0.8
		c0.5,0,0.8,0.3,0.8,0.8c0,0.3,0,0.6-0.1,0.8l-2.8,9.8h-35.1c-0.5,0-0.7-0.3-0.7-0.8c0-0.6,0.6-1.2,1.9-1.6c1.3-0.4,1.9-1.5,1.9-3.2
		v-42.4c0-1.7-0.6-2.7-1.9-3.2c-1.3-0.4-1.9-1-1.9-1.7c0-0.5,0.3-0.8,0.8-0.8h35.5v9.8c0,0.5-0.3,0.8-0.8,0.8
		c-0.3,0-0.7-0.5-1.4-1.5c-1.3-1.8-2.4-3.1-3.3-4.1c-0.9-1-2.2-1.5-3.7-1.5h-16.3v20.7h8.7c1.6,0,2.7-0.7,3.2-2s1.1-2,1.8-2
		c0.5,0,0.8,0.3,0.8,0.8v9.7c0,0.5-0.3,0.8-0.8,0.8c-0.7,0-1.3-0.6-1.9-1.9s-1.7-1.9-3.3-1.9h-8.5V409.3z"/>
	<path class="st0" d="M405.5,409.3h16.3c2.4,0,4.4-0.9,6-2.7c1.6-1.8,2.9-3.2,3.7-4.3c0.5-0.6,0.8-0.8,1.1-0.8
		c0.5,0,0.8,0.3,0.8,0.8c0,0.3,0,0.6-0.1,0.8l-2.8,9.8h-35.1c-0.5,0-0.7-0.3-0.7-0.8c0-0.6,0.6-1.2,1.9-1.6c1.3-0.4,1.9-1.5,1.9-3.2
		v-42.4c0-1.7-0.6-2.7-1.9-3.2c-1.3-0.4-1.9-1-1.9-1.7c0-0.5,0.3-0.8,0.8-0.8H431v9.8c0,0.5-0.3,0.8-0.8,0.8c-0.3,0-0.7-0.5-1.4-1.5
		c-1.3-1.8-2.4-3.1-3.3-4.1c-0.9-1-2.2-1.5-3.7-1.5h-16.3v20.7h8.7c1.6,0,2.7-0.7,3.2-2s1.1-2,1.8-2c0.5,0,0.8,0.3,0.8,0.8v9.7
		c0,0.5-0.3,0.8-0.8,0.8c-0.7,0-1.3-0.6-1.9-1.9s-1.7-1.9-3.3-1.9h-8.5V409.3z"/>
</g>
<g>
	<path class="st0" d="M242.5,267.1v1.5l4.5-0.1h0c0.2,0,0.3,0.2,0.3,0.5c0,0.2,0,0.4-0.1,0.6c-0.1,0.6-0.4,0.9-0.8,0.9l-3.9,0v13.2
		c0,0.8,0.3,1.3,0.9,1.6s0.9,0.5,0.9,0.8c0,0.3-0.1,0.4-0.4,0.4h-6.4c-0.3,0-0.4-0.1-0.4-0.4c0-0.3,0.3-0.6,0.9-0.8
		c0.6-0.2,0.9-0.7,0.9-1.6v-13.1c-0.5,0-1.2,0-2.1,0.1h-0.1c-0.2,0-0.4-0.1-0.4-0.4v0c0-0.2,0.1-0.4,0.4-0.5
		c0.3-0.1,0.8-0.4,1.6-0.8c0.2-0.1,0.4-0.2,0.5-0.3c0,0,0.1,0,0.2,0v-1.5c0-1.6,0.1-2.9,0.4-3.9c0.2-0.6,0.5-1.2,0.8-1.6
		c0.2-0.2,0.4-0.4,0.7-0.5l4.8-1.8c0.1,0,0.3-0.1,0.6-0.1h0.1c0.3,0,0.5,0.1,0.8,0.2c0.3,0.2,0.6,0.4,0.7,0.6
		c0.1,0.2,0.1,0.4,0.1,0.6c0,0.1,0,0.2,0,0.3c0,0.6-0.1,0.9-0.2,0.9h-0.1c-0.1,0-0.3-0.1-0.6-0.3c-0.6-0.4-1.2-0.6-1.8-0.6
		c-0.4,0-0.7,0.1-1,0.2c-1.1,0.5-1.6,1.3-1.8,2.6c-0.1,0.5-0.1,1-0.1,1.5S242.5,266.5,242.5,267.1z"/>
	<path class="st0" d="M258.9,268.4c2.4,0.1,4.5,1,6.2,2.8c1.7,1.8,2.6,3.9,2.6,6.4v0.1c0,2.5-0.9,4.6-2.7,6.4
		c-1.8,1.8-4,2.7-6.6,2.7h-0.3c-2.4,0-4.5-0.9-6.2-2.7c-1.8-1.8-2.7-4-2.7-6.5v-0.1c0-2.7,1-5.1,3.1-6.9c0.2-0.2,0.6-0.4,1.1-0.6
		c0.5-0.2,1.2-0.4,2.1-0.8c0.6-0.2,1.2-0.4,1.8-0.7C257.9,268.5,258.5,268.4,258.9,268.4L258.9,268.4z M258.5,269.7h-0.2
		c-1.5,0-2.7,0.7-3.8,2.1c-1.1,1.5-1.7,3.4-1.7,5.5s0.5,4.1,1.6,5.7c1.1,1.6,2.4,2.5,4,2.5h0.3c1.5,0,2.7-0.7,3.8-2.1
		c1.1-1.5,1.7-3.3,1.7-5.5s-0.6-4.1-1.7-5.7C261.4,270.6,260.1,269.8,258.5,269.7z"/>
	<path class="st0" d="M276.5,275.2v8.4c0,0.8,0.3,1.3,0.9,1.6c0.6,0.2,0.9,0.5,0.9,0.8c0,0.3-0.1,0.4-0.4,0.4h-6.4
		c-0.3,0-0.4-0.1-0.4-0.4c0-0.3,0.3-0.6,0.9-0.8s0.9-0.7,0.9-1.6v-12c0-0.8-0.3-1.3-0.9-1.5s-0.9-0.5-0.9-0.8c0-0.3,0.1-0.4,0.4-0.4
		c0.8,0,1.6-0.2,2.5-0.4c0.8-0.2,1.6-0.5,2.4-0.7v2.5l2.6-1c1-0.4,1.7-0.6,2.3-0.8c0.2,0,0.4-0.1,0.6-0.1c0.5,0,1.1,0.1,1.8,0.4
		l-0.4,4.7h-0.9c-0.5-1.8-1.4-2.7-2.8-2.7c-0.1,0-0.3,0-0.4,0c-1,0.1-1.6,0.6-2,1.5C276.7,273,276.5,274,276.5,275.2z"/>
</g>
<g>
	<line class="st1" x1="294.8" y1="260.5" x2="432.7" y2="260.5"/>
	<line class="st1" x1="294.8" y1="272.8" x2="432.7" y2="272.8"/>
	<line class="st1" x1="294.8" y1="285.1" x2="432.7" y2="285.1"/>
</g>
<g>
	<line class="st1" x1="81.6" y1="260.5" x2="219.5" y2="260.5"/>
	<line class="st1" x1="81.6" y1="272.8" x2="219.5" y2="272.8"/>
	<line class="st1" x1="81.6" y1="285.1" x2="219.5" y2="285.1"/>
</g>
<g>
	<path class="st0" d="M105.5,313.7c0,0.3-0.1,0.4-0.4,0.4c-0.1,0-0.4-0.3-0.8-0.8c-0.7-0.9-1.3-1.7-1.8-2.2c-0.5-0.5-1.2-0.8-2-0.8
		h-5.2v24c0,0.9,0.3,1.5,1,1.7c0.7,0.2,1,0.5,1,0.9c0,0.3-0.1,0.4-0.4,0.4h-7c-0.3,0-0.4-0.1-0.4-0.4c0-0.3,0.3-0.6,1-0.9
		s1-0.8,1-1.7v-24h-5.3c-0.8,0-1.5,0.3-2,0.8c-0.5,0.5-1.1,1.3-1.8,2.2c-0.4,0.5-0.6,0.8-0.8,0.8c-0.3,0-0.4-0.1-0.4-0.4v-3.8
		c0-0.7,0.1-1.2,0.4-1.3c0.3-0.2,0.9-0.2,2-0.2h19.4c1.1,0,1.8,0.1,2,0.2c0.2,0.1,0.3,0.6,0.3,1.4V313.7z"/>
	<path class="st0" d="M140.3,307.6h0.2c4.4,0,8.2,1.4,11.2,4.1c2.8,2.5,4.3,5.9,4.3,10c0,0.4,0,0.7,0,1.1c-0.3,4.7-1.9,8.4-4.9,11
		c-3,2.6-6.6,4-10.8,4.3c-0.3,0-0.6,0-0.9,0c-3.8,0-7.2-1.3-10.1-4c-3-2.7-4.5-6.2-4.5-10.6c0-0.2,0-0.5,0-0.7
		c0.2-4.7,1.7-8.4,4.5-11.1C132.1,309,135.7,307.6,140.3,307.6z M140.3,309.4c-4.2,0-7.2,1.3-8.8,4s-2.5,5.8-2.5,9.5
		c0,3.7,1.1,6.9,3.2,9.5c2.1,2.6,4.8,4,8.2,4h0.1c3.3,0,6-1.4,8.1-4.2c2.1-2.8,3.1-5.8,3.1-9.2v-0.1c0-3.4-0.9-6.5-2.7-9.3
		C147.2,310.8,144.3,309.4,140.3,309.4z"/>
	<path class="st0" d="M181.3,311.3l8.7,22.4l5-10.3l-3.2-8.9c-0.2-0.7-0.5-1.3-0.7-1.8c-0.2-0.5-0.4-0.9-0.5-1.3
		c-0.2-0.5-0.7-1-1.2-1.4c-0.3-0.2-0.6-0.4-1-0.5c-0.3-0.1-0.6-0.3-0.8-0.4c-0.1-0.1-0.2-0.2-0.3-0.3c0-0.1,0-0.1,0-0.2
		c0-0.1,0-0.1,0-0.1c0-0.1,0.1-0.1,0.2-0.1h7c0.1,0,0.2,0,0.4,0.1c0.1,0.1,0.2,0.2,0.3,0.3c0,0,0,0.1,0,0.1c0,0.1-0.1,0.3-0.2,0.4
		c-0.1,0.1-0.3,0.3-0.5,0.4c-0.2,0.1-0.3,0.3-0.4,0.5c-0.1,0.1-0.1,0.3-0.1,0.4c0,0.2,0,0.4,0.1,0.6l2.9,7.5l2.1-4.3
		c0.2-0.4,0.2-0.7,0.2-1c0-0.2-0.1-0.5-0.2-0.7c-0.3-0.4-0.7-0.9-1.2-1.6l-1-1.2l2.6-1.9c0.1-0.1,0.2-0.1,0.4-0.1
		c0.1,0,0.3,0.1,0.5,0.2l1.7,1.7c0.4,0.4,0.5,0.8,0.5,1.4c0,0.3-0.1,0.6-0.2,1c-0.3,1-0.8,2.1-1.5,3.4l-2.8,5.9l4.7,12l9.3-19.2
		c0.2-0.4,0.2-0.7,0.2-1c0-0.2-0.1-0.5-0.2-0.7c-0.3-0.4-0.7-0.9-1.2-1.6l-1-1.2l2.6-1.9c0.1-0.1,0.2-0.1,0.4-0.1
		c0.2,0,0.3,0.1,0.5,0.2l1.7,1.7c0.4,0.4,0.5,0.8,0.5,1.4c0,0.3-0.1,0.6-0.2,1c-0.3,1-0.8,2.1-1.5,3.4l-10.1,20.9
		c-0.1,0.2-0.2,0.4-0.3,0.5c-0.1,0.1-0.2,0.1-0.3,0.1h-3.1c-0.2,0-0.3-0.1-0.3-0.2c-0.1,0-0.1-0.2-0.2-0.5c-0.1-0.3-0.2-0.5-0.2-0.6
		l-3.5-9.8l-5,10.4c-0.1,0.2-0.2,0.4-0.3,0.5c-0.1,0.1-0.2,0.1-0.3,0.1h-3.1c-0.2,0-0.3-0.1-0.3-0.2c-0.1,0-0.1-0.2-0.2-0.5
		c-0.1-0.3-0.2-0.5-0.2-0.6l-9-24.7c-0.2-0.5-0.6-0.9-1.2-1.4c-0.3-0.2-0.6-0.4-1-0.5c-0.3-0.1-0.6-0.3-0.8-0.4
		c-0.1-0.1-0.2-0.2-0.3-0.3c0-0.1,0-0.1,0-0.2c0-0.1,0-0.1,0-0.1c0-0.1,0.1-0.1,0.2-0.1h7c0.1,0,0.2,0,0.4,0.1
		c0.1,0.1,0.2,0.2,0.2,0.3c0,0,0,0.1,0,0.1c0,0.1-0.1,0.3-0.2,0.4c-0.1,0.1-0.3,0.3-0.5,0.4c-0.2,0.1-0.3,0.3-0.4,0.5
		c-0.1,0.1-0.1,0.3-0.1,0.4C181.2,310.9,181.2,311.1,181.3,311.3z"/>
	<path class="st0" d="M261.8,333.2v-21.7c0-0.9-0.3-1.4-1-1.7c-0.7-0.2-1-0.5-1-0.9c0-0.3,0.1-0.4,0.4-0.4h5.3
		c0.3,0,0.4,0.1,0.4,0.4c0,0.4-0.3,0.7-1,0.9s-1,0.8-1,1.7l0,26.8l-3.6-0.9l-19.7-24.5v21.5c0,0.9,0.3,1.5,1,1.7s1,0.5,1,0.9
		c0,0.3-0.1,0.4-0.4,0.4h-5.2c-0.3,0-0.4-0.1-0.4-0.4c0-0.3,0.3-0.6,1-0.9s1-0.8,1-1.7v-22.9c0-0.9-0.3-1.4-1-1.7s-1-0.5-1-0.9
		c0-0.3,0.1-0.4,0.4-0.4h5.3L261.8,333.2z"/>
	<path class="st0" d="M295.8,336.2c1.1-0.1,2.2-0.4,3.2-0.9c1-0.5,1.8-1.3,2.5-2.3c0.6-1,1-2.3,1-3.7v-0.2c0-1.6-0.6-2.7-1.8-3.6
		c-0.5-0.4-1.2-0.7-1.9-0.9c-1.5-0.4-2.9-0.7-4.5-0.8c-1.5-0.2-3-0.6-4.3-1.2c-1.2-0.6-2.1-1.4-2.7-2.5c-0.6-1.1-0.9-2.3-0.9-3.7
		c0-2.6,0.9-4.7,2.7-6.3c1.8-1.7,4.2-2.6,7-2.6h0.6c3.1,0.1,5.7,0.9,7.8,2.3l-0.5,4.3c0,0.2-0.2,0.4-0.4,0.4h-0.1
		c-0.2,0-0.4-0.2-0.5-0.6c-0.6-1.2-1.4-2.3-2.6-3.2c-1.1-0.9-2.3-1.3-3.6-1.4h-0.3c-1.3,0-2.4,0.2-3.4,0.7c-0.6,0.3-1.2,0.7-1.5,1.1
		c-0.4,0.4-0.7,0.9-0.9,1.4c-0.2,0.5-0.4,1-0.5,1.6c-0.1,0.4-0.1,0.9-0.1,1.3c0,0.5,0.1,1,0.2,1.5c0.3,0.9,0.8,1.6,1.5,2.1
		c0.5,0.4,1.1,0.7,1.8,0.8c0.3,0.1,0.8,0.2,1.3,0.3s1,0.2,1.5,0.3c0.8,0.1,1.6,0.3,2.5,0.4c0.9,0.1,1.7,0.3,2.5,0.6
		c1.4,0.4,2.4,1,3.1,1.8c0.5,0.6,0.9,1.2,1.2,1.9c0.4,0.9,0.6,1.9,0.6,3c0,2.9-1.2,5.4-3.6,7.3c-1.2,1-2.6,1.8-4.1,2.2
		c-1.2,0.4-2.5,0.6-3.9,0.7c-0.3,0-0.6,0-0.9,0c-1.9,0-3.7-0.3-5.5-0.8l-2-5.4c0-0.1,0-0.1,0-0.2c0-0.1,0-0.3,0.1-0.4
		c0.1-0.2,0.3-0.3,0.4-0.3c0.2,0,0.3,0.2,0.5,0.6c0.9,1.9,2,3.2,3.3,3.8c1.1,0.5,2.5,0.8,4.2,0.8
		C295.1,336.2,295.4,336.2,295.8,336.2z"/>
	<path class="st0" d="M333.2,311.5v9.6h17.4v-9.6c0-0.9-0.3-1.4-1-1.7s-1-0.5-1-0.9c0-0.3,0.1-0.4,0.4-0.4h7c0.3,0,0.4,0.1,0.4,0.4
		c0,0.4-0.3,0.7-1,0.9c-0.7,0.2-1,0.8-1,1.7v22.9c0,0.9,0.3,1.5,1,1.7c0.7,0.2,1,0.5,1,0.9c0,0.3-0.1,0.4-0.4,0.4h-7
		c-0.3,0-0.4-0.1-0.4-0.4c0-0.3,0.3-0.6,1-0.9s1-0.8,1-1.7V323h-17.4v11.3c0,0.9,0.3,1.5,1,1.7c0.7,0.2,1,0.5,1,0.9
		c0,0.3-0.1,0.4-0.4,0.4h-7c-0.3,0-0.4-0.1-0.4-0.4c0-0.3,0.3-0.6,1-0.9c0.7-0.2,1-0.8,1-1.7v-22.9c0-0.9-0.3-1.4-1-1.7
		c-0.7-0.2-1-0.5-1-0.9c0-0.3,0.1-0.4,0.4-0.4h7c0.3,0,0.4,0.1,0.4,0.4c0,0.4-0.3,0.7-1,0.9C333.6,310,333.2,310.6,333.2,311.5z"/>
	<path class="st0" d="M384.3,311.5v22.9c0,0.9,0.3,1.5,1,1.7c0.7,0.2,1,0.5,1,0.9c0,0.3-0.1,0.4-0.4,0.4h-7c-0.3,0-0.4-0.1-0.4-0.4
		c0-0.3,0.3-0.6,1-0.9c0.7-0.2,1-0.8,1-1.7v-22.9c0-0.9-0.3-1.5-1-1.7c-0.7-0.2-1-0.5-1-0.9c0-0.3,0.1-0.4,0.4-0.4h7
		c0.3,0,0.4,0.1,0.4,0.4c0,0.4-0.3,0.7-1,0.9C384.6,310,384.3,310.6,384.3,311.5z"/>
	<path class="st0" d="M415.4,334.3c0,0.9,0.3,1.5,1,1.7c0.7,0.2,1,0.5,1,0.9c0,0.3-0.1,0.4-0.4,0.4h-7c-0.3,0-0.4-0.1-0.4-0.4
		c0-0.3,0.3-0.6,1-0.9c0.7-0.2,1-0.8,1-1.7l0-22.9c0-0.9-0.3-1.4-1-1.7c-0.7-0.2-1-0.5-1-0.9c0-0.3,0.1-0.4,0.4-0.4h12.1
		c1.4,0,2.9,0.3,4.4,0.8c1.5,0.5,2.7,1.5,3.6,2.9c0.7,1.2,1,2.6,1,4.2c0,1.6-0.5,2.9-1.3,4.2c-0.7,1.1-1.8,1.8-3.2,2.4
		c-1.4,0.5-2.6,0.8-3.7,0.8h-7.6V334.3z M415.4,310.1v12h4.8c0.9,0,1.9-0.1,2.9-0.4c1-0.3,1.8-0.8,2.5-1.5c1.1-1.1,1.6-2.5,1.6-4.2
		c0-1.7-0.6-3.1-1.7-4.2c-1.2-1.2-2.9-1.8-4.9-1.8H415.4z"/>
</g>
</svg>
